<mxfile host="app.diagrams.net" agent="Mozilla/5.0 (X11; Linux x86_64) AppleWebKit/537.36 (KHTML, like Gecko) Chrome/134.0.0.0 Safari/537.36" version="26.1.3">
  <diagram name="Page-1" id="vb9vtmNH2rKAXv1wTEaA">
    <mxGraphModel dx="2467" dy="1611" grid="1" gridSize="10" guides="1" tooltips="1" connect="1" arrows="1" fold="1" page="0" pageScale="1" pageWidth="827" pageHeight="1169" math="0" shadow="0">
      <root>
        <mxCell id="0" />
        <mxCell id="1" parent="0" />
        <mxCell id="344crBuL5edvHTzPQPv8-1" value="abstract task" style="ellipse;whiteSpace=wrap;html=1;" parent="1" vertex="1">
          <mxGeometry x="130" y="230" width="120" height="80" as="geometry" />
        </mxCell>
        <mxCell id="344crBuL5edvHTzPQPv8-2" value="abstract task&lt;br&gt;property" style="ellipse;whiteSpace=wrap;html=1;" parent="1" vertex="1">
          <mxGeometry x="530" y="230" width="120" height="80" as="geometry" />
        </mxCell>
        <mxCell id="344crBuL5edvHTzPQPv8-6" value="task instance" style="ellipse;whiteSpace=wrap;html=1;" parent="1" vertex="1">
          <mxGeometry x="130" y="570" width="120" height="80" as="geometry" />
        </mxCell>
        <mxCell id="344crBuL5edvHTzPQPv8-9" style="rounded=0;orthogonalLoop=1;jettySize=auto;html=1;endArrow=classic;startFill=0;endFill=1;strokeColor=default;" parent="1" source="344crBuL5edvHTzPQPv8-8" target="344crBuL5edvHTzPQPv8-16" edge="1">
          <mxGeometry relative="1" as="geometry">
            <mxPoint x="280" y="440" as="targetPoint" />
          </mxGeometry>
        </mxCell>
        <mxCell id="344crBuL5edvHTzPQPv8-10" style="rounded=0;orthogonalLoop=1;jettySize=auto;html=1;endArrow=classic;startFill=0;endFill=1;" parent="1" source="344crBuL5edvHTzPQPv8-8" target="344crBuL5edvHTzPQPv8-12" edge="1">
          <mxGeometry relative="1" as="geometry">
            <mxPoint x="470" y="370" as="targetPoint" />
          </mxGeometry>
        </mxCell>
        <mxCell id="344crBuL5edvHTzPQPv8-8" value="task property&lt;br&gt;instance" style="ellipse;whiteSpace=wrap;html=1;" parent="1" vertex="1">
          <mxGeometry x="335" y="410" width="110" height="80" as="geometry" />
        </mxCell>
        <mxCell id="344crBuL5edvHTzPQPv8-13" style="edgeStyle=orthogonalEdgeStyle;rounded=0;orthogonalLoop=1;jettySize=auto;html=1;" parent="1" source="344crBuL5edvHTzPQPv8-12" target="344crBuL5edvHTzPQPv8-1" edge="1">
          <mxGeometry relative="1" as="geometry" />
        </mxCell>
        <mxCell id="344crBuL5edvHTzPQPv8-14" style="edgeStyle=orthogonalEdgeStyle;rounded=0;orthogonalLoop=1;jettySize=auto;html=1;" parent="1" source="344crBuL5edvHTzPQPv8-12" target="344crBuL5edvHTzPQPv8-2" edge="1">
          <mxGeometry relative="1" as="geometry" />
        </mxCell>
        <mxCell id="344crBuL5edvHTzPQPv8-12" value="task to property&lt;br&gt;connection" style="ellipse;whiteSpace=wrap;html=1;" parent="1" vertex="1">
          <mxGeometry x="350" y="230" width="80" height="80" as="geometry" />
        </mxCell>
        <mxCell id="344crBuL5edvHTzPQPv8-17" style="edgeStyle=orthogonalEdgeStyle;rounded=0;orthogonalLoop=1;jettySize=auto;html=1;" parent="1" source="344crBuL5edvHTzPQPv8-16" target="344crBuL5edvHTzPQPv8-1" edge="1">
          <mxGeometry relative="1" as="geometry" />
        </mxCell>
        <mxCell id="344crBuL5edvHTzPQPv8-18" style="edgeStyle=orthogonalEdgeStyle;rounded=0;orthogonalLoop=1;jettySize=auto;html=1;" parent="1" source="344crBuL5edvHTzPQPv8-16" target="344crBuL5edvHTzPQPv8-6" edge="1">
          <mxGeometry relative="1" as="geometry" />
        </mxCell>
        <mxCell id="344crBuL5edvHTzPQPv8-16" value="task to instance connection" style="ellipse;whiteSpace=wrap;html=1;" parent="1" vertex="1">
          <mxGeometry x="150" y="410" width="80" height="80" as="geometry" />
        </mxCell>
        <mxCell id="344crBuL5edvHTzPQPv8-20" value="abstract task" style="ellipse;whiteSpace=wrap;html=1;" parent="1" vertex="1">
          <mxGeometry x="730" y="620" width="120" height="80" as="geometry" />
        </mxCell>
        <mxCell id="344crBuL5edvHTzPQPv8-21" value="abstract task&lt;br&gt;property" style="ellipse;whiteSpace=wrap;html=1;" parent="1" vertex="1">
          <mxGeometry x="1130" y="620" width="120" height="80" as="geometry" />
        </mxCell>
        <mxCell id="344crBuL5edvHTzPQPv8-26" style="edgeStyle=orthogonalEdgeStyle;rounded=0;orthogonalLoop=1;jettySize=auto;html=1;" parent="1" source="344crBuL5edvHTzPQPv8-28" target="344crBuL5edvHTzPQPv8-20" edge="1">
          <mxGeometry relative="1" as="geometry" />
        </mxCell>
        <mxCell id="344crBuL5edvHTzPQPv8-27" style="edgeStyle=orthogonalEdgeStyle;rounded=0;orthogonalLoop=1;jettySize=auto;html=1;" parent="1" source="344crBuL5edvHTzPQPv8-28" target="344crBuL5edvHTzPQPv8-21" edge="1">
          <mxGeometry relative="1" as="geometry" />
        </mxCell>
        <mxCell id="344crBuL5edvHTzPQPv8-28" value="task to property&lt;br&gt;connection" style="ellipse;whiteSpace=wrap;html=1;" parent="1" vertex="1">
          <mxGeometry x="950" y="620" width="80" height="80" as="geometry" />
        </mxCell>
        <mxCell id="344crBuL5edvHTzPQPv8-34" style="edgeStyle=orthogonalEdgeStyle;rounded=0;orthogonalLoop=1;jettySize=auto;html=1;" parent="1" source="344crBuL5edvHTzPQPv8-33" target="344crBuL5edvHTzPQPv8-28" edge="1">
          <mxGeometry relative="1" as="geometry" />
        </mxCell>
        <mxCell id="344crBuL5edvHTzPQPv8-33" value="instantiated&lt;br&gt;task to property&lt;br&gt;connection" style="ellipse;whiteSpace=wrap;html=1;" parent="1" vertex="1">
          <mxGeometry x="935" y="840" width="110" height="100" as="geometry" />
        </mxCell>
      </root>
    </mxGraphModel>
  </diagram>
</mxfile>
